#!OML:ASF G:\JayActor3\Patient Classification 1\Patient 1\Session 5\male.ASF
:FULLY-SPECIFIED
:DEGREES
816
root -29.4655 17.6865 -6.66034 1157.1 -83.1831 -1159.15
lowerback 2.69237 -0.124938 8.7753
upperback 0.967468 0.0339112 0.597626
thorax -0.501423 0.0133366 -4.30328
lowerneck -6.70202 -0.337725 1.11694
upperneck 10.8167 -0.811522 1.3237
head 4.81385 -0.31272 0.197741
rclavicle -1.16786e-015 -1.98785e-016
rhumerus -31.5542 -2.47399 -88.1609
rradius 30.0902
rwrist -0.52471
rhand -20.1099 -10.0789
rfingers 7.12502
rthumb 6.23374 -39.9672
lclavicle -1.16786e-015 -1.98785e-016
lhumerus -36.5353 9.85958 79.3415
lradius 24.967
lwrist 15.7035
lhand -17.1439 12.0342
lfingers 7.12502
lthumb 9.09649 41.8181
rfemur 4.0674 -6.01717 32.8093
rtibia 25.3489
rfoot -3.22978 -8.38837
rtoes -8.64828
lfemur -24.5559 4.57924 -13.9953
ltibia 34.1497
lfoot -0.778212 5.43053
ltoes -26.4774
817
root -29.6116 17.6807 -6.65348 1158.51 -83.0085 -1160.42
lowerback 2.55431 -0.100747 9.04652
upperback 0.95648 0.0576944 0.630153
thorax -0.43098 0.0276051 -4.42178
lowerneck -6.72842 -0.322656 1.11706
upperneck 10.7536 -0.784473 1.28663
head 4.7957 -0.301095 0.186695
rclavicle 3.47252e-015 1.2921e-014
rhumerus -31.4881 -2.27821 -88.2817
rradius 30.1783
rwrist -0.619095
rhand -20.0592 -10.0121
rfingers 7.12502
rthumb 6.28262 -39.8989
lclavicle 3.47252e-015 1.2921e-014
lhumerus -36.4679 10.0003 79.2102
lradius 24.7565
lwrist 15.5701
lhand -17.1812 12.0088
lfingers 7.12502
lthumb 9.06045 41.7942
rfemur 4.92085 -6.19551 32.896
rtibia 24.4617
rfoot -2.94156 -8.2415
rtoes -8.6665
lfemur -25.0831 5.03602 -14.1095
ltibia 32.7327
lfoot 0.544108 4.80686
ltoes -27.4306
818
root -29.7599 17.6725 -6.64618 1159.9 -82.8131 -1161.67
lowerback 2.40872 -0.0751839 9.33281
upperback 0.941369 0.0819767 0.670296
thorax -0.360221 0.042072 -4.54062
lowerneck -6.74774 -0.306856 1.11558
upperneck 10.6916 -0.756244 1.24892
head 4.77656 -0.289046 0.175814
rclavicle 3.01904e-015 -1.37161e-014
rhumerus -31.4301 -2.12241 -88.3816
rradius 30.2344
rwrist -0.680062
rhand -20.0018 -9.95251
rfingers 7.12502
rthumb 6.33807 -39.8377
lclavicle 3.01904e-015 -1.37161e-014
lhumerus -36.4071 10.1577 79.0794
lradius 24.53
lwrist 15.4216
lhand -17.2209 11.9773
lfingers 7.12502
lthumb 9.02216 41.7644
rfemur 5.79527 -6.37254 32.9865
rtibia 23.5512
rfoot -2.60866 -8.07381
rtoes -8.61322
lfemur -25.5809 5.5257 -14.2305
ltibia 31.2969
lfoot 2.00366 3.88972
ltoes -28.7075
819
root -29.9104 17.6631 -6.6385 1161.2 -82.6141 -1162.84
lowerback 2.26213 -0.0480673 9.61679
upperback 0.924701 0.107192 0.711363
thorax -0.290137 0.0570304 -4.65704
lowerneck -6.76027 -0.293482 1.11948
upperneck 10.6264 -0.731468 1.20823
head 4.75482 -0.278691 0.162752
rclavicle 5.3734e-015 -1.39149e-015
rhumerus -31.3792 -1.99943 -88.4659
rradius 30.257
rwrist -0.727254
rhand -19.9531 -9.90579
rfingers 7.12502
rthumb 6.38507 -39.7896
lclavicle 5.3734e-015 -1.39149e-015
lhumerus -36.352 10.3241 78.9502
lradius 24.2918
lwrist 15.2582
lhand -17.2663 11.9449
lfingers 7.12502
lthumb 8.97836 41.7339
rfemur 6.69834 -6.55274 33.06
rtibia 22.6156
rfoot -2.23068 -7.89786
rtoes -8.54405
lfemur -26.0144 5.9911 -14.35
ltibia 29.8772
lfoot 3.44018 2.81357
ltoes -29.6058
820
root -30.0626 17.6537 -6.63059 1162.4 -82.4263 -1163.92
lowerback 2.12611 -0.0207163 9.88195
upperback 0.902068 0.133082 0.749729
thorax -0.231974 0.0717023 -4.76561
lowerneck -6.7531 -0.284216 1.12345
upperneck 10.5562 -0.712368 1.17042
head 4.72722 -0.271148 0.150344
rclavicle -1.59028e-015 -2.72335e-014
rhumerus -31.3438 -1.90445 -88.5358
rradius 30.2434
rwrist -0.751184
rhand -19.9139 -9.86546
rfingers 7.12502
rthumb 6.42296 -39.7481
lclavicle -1.59028e-015 -2.72335e-014
lhumerus -36.3098 10.4968 78.8222
lradius 24.0447
lwrist 15.0825
lhand -17.3115 11.9238
lfingers 7.12502
lthumb 8.93475 41.7146
rfemur 7.63478 -6.73527 33.1036
rtibia 21.6446
rfoot -1.80489 -7.72444
rtoes -8.50448
lfemur -26.3818 6.4069 -14.4726
ltibia 28.5185
lfoot 4.82321 1.75153
ltoes -30.0826
821
root -30.2166 17.6452 -6.62295 1163.58 -82.2504 -1164.99
lowerback 2.0031 0.0101759 10.1239
upperback 0.872861 0.164558 0.784975
thorax -0.187017 0.0883915 -4.86443
lowerneck -6.72919 -0.27679 1.13065
upperneck 10.4833 -0.696764 1.13896
head 4.69525 -0.265013 0.139334
rclavicle 1.36664e-015 1.33186e-014
rhumerus -31.3257 -1.84299 -88.5943
rradius 30.1977
rwrist -0.748522
rhand -19.8903 -9.84296
rfingers 7.12502
rthumb 6.44569 -39.7249
lclavicle 1.36664e-015 1.33186e-014
lhumerus -36.2782 10.6788 78.6895
lradius 23.782
lwrist 14.8874
lhand -17.3562 11.896
lfingers 7.12502
lthumb 8.89165 41.6886
rfemur 8.61376 -6.89525 33.1269
rtibia 20.6196
rfoot -1.33365 -7.57796
rtoes -8.55229
lfemur -26.6776 6.74055 -14.5732
ltibia 27.2664
lfoot 6.13139 0.935475
ltoes -29.93
822
root -30.3721 17.6385 -6.61535 1164.76 -82.0966 -1166.07
lowerback 1.89616 0.0428776 10.3353
upperback 0.836885 0.199937 0.813538
thorax -0.157517 0.106115 -4.95316
lowerneck -6.68098 -0.268223 1.14342
upperneck 10.4061 -0.680532 1.11172
head 4.65679 -0.258337 0.128842
rclavicle -3.74585e-015 2.18663e-015
rhumerus -31.3268 -1.82189 -88.6409
rradius 30.1151
rwrist -0.701204
rhand -19.8866 -9.82349
rfingers 7.12502
rthumb 6.44929 -39.7053
lclavicle -3.74585e-015 2.18663e-015
lhumerus -36.2633 10.8689 78.5505
lradius 23.5099
lwrist 14.6806
lhand -17.3978 11.8766
lfingers 7.12502
lthumb 8.85152 41.6709
rfemur 9.64238 -7.03438 33.1169
rtibia 19.5301
rfoot -0.795576 -7.45455
rtoes -8.72814
lfemur -26.9064 6.98888 -14.6599
ltibia 26.1452
lfoot 7.37006 0.50516
ltoes -29.2347
823
root -30.5297 17.6335 -6.60767 1165.99 -81.9609 -1167.22
lowerback 1.80211 0.0800785 10.524
upperback 0.796113 0.242633 0.834308
thorax -0.139024 0.126823 -5.03742
lowerneck -6.62031 -0.260096 1.15818
upperneck 10.3329 -0.66653 1.09561
head 4.61735 -0.252222 0.121667
rclavicle 1.30452e-015 3.18055e-015
rhumerus -31.3432 -1.84551 -88.6762
rradius 29.9915
rwrist -0.594831
rhand -19.8951 -9.80749
rfingers 7.12502
rthumb 6.44106 -39.6896
lclavicle 1.30452e-015 3.18055e-015
lhumerus -36.2627 11.0575 78.4058
lradius 23.2301
lwrist 14.4674
lhand -17.4312 11.8539
lfingers 7.12502
lthumb 8.81926 41.6496
rfemur 10.7211 -7.14652 33.0784
rtibia 18.3768
rfoot -0.185703 -7.35707
rtoes -8.93752
lfemur -27.0825 7.17657 -14.7353
ltibia 25.1654
lfoot 8.53701 0.472703
ltoes -28.239
824
root -30.6898 17.6297 -6.59969 1167.35 -81.8342 -1168.51
lowerback 1.70678 0.125081 10.7017
upperback 0.756629 0.295021 0.849614
thorax -0.116678 0.152612 -5.12124
lowerneck -6.5537 -0.252077 1.1737
upperneck 10.2626 -0.653927 1.08885
head 4.5779 -0.246352 0.117443
rclavicle -1.48467e-015 -3.10104e-014
rhumerus -31.362 -1.91105 -88.7001
rradius 29.819
rwrist -0.434603
rhand -19.9221 -9.78486
rfingers 7.12502
rthumb 6.41498 -39.6677
lclavicle -1.48467e-015 -3.10104e-014
lhumerus -36.2689 11.2544 78.2542
lradius 22.9425
lwrist 14.2411
lhand -17.4518 11.8262
lfingers 7.12502
lthumb 8.79939 41.6228
rfemur 11.8446 -7.22867 33.0189
rtibia 17.1695
rfoot 0.49163 -7.27749
rtoes -9.24112
lfemur -27.229 7.35818 -14.8118
ltibia 24.3264
lfoot 9.6226 0.752469
ltoes -27.2167
